<?xml version="1.0"?>
<svg xmlns="http://www.w3.org/2000/svg" viewBox="0 0 64 64" width="512px" height="512px"><g><g id="Layer_13" data-name="Layer 13"><path d="M45.8,42.39a23,23,0,1,0-27.6,0L6.29,54.29a1,1,0,0,0-.19,1.14,1,1,0,0,0,1,.56L15,55.12V62a1,1,0,0,0,.62.92A.84.84,0,0,0,16,63a1,1,0,0,0,.71-.29L32,47.41l15.29,15.3A1,1,0,0,0,48,63a.84.84,0,0,0,.38-.08A1,1,0,0,0,49,62V55.12l7.89.87a1,1,0,0,0,1-.56,1,1,0,0,0-.19-1.14ZM11,24A21,21,0,1,1,32,45,21,21,0,0,1,11,24Zm5.67,29.25a1,1,0,0,0-.78-.24l-6.17.68L19.88,43.53a22.62,22.62,0,0,0,9.82,3.35L17,59.59V54A1,1,0,0,0,16.67,53.25ZM48.11,53a1,1,0,0,0-.78.24A1,1,0,0,0,47,54v5.59L34.3,46.88a22.62,22.62,0,0,0,9.82-3.35L54.28,53.69Z" data-original="#000000" class="active-path" data-old_color="#000000" fill="#FFFFFF"/><path d="M51,24A19,19,0,1,0,32,43,19,19,0,0,0,51,24ZM15.75,19H26a1,1,0,0,0,.71-.29l4-4A1,1,0,0,0,31,14V11a2,2,0,0,1,2,2v5a1,1,0,0,0,1,1h9v2H35v2h8v2H35v2h8v2H35v2h8v1a1,1,0,0,1-1,1H30.24l-3.79-1.89A1,1,0,0,0,26,31H16.53A16.74,16.74,0,0,1,15,24,17.19,17.19,0,0,1,15.75,19ZM17.6,33h8.16l3.79,1.89A1,1,0,0,0,30,35H42a3,3,0,0,0,3-3V18a1,1,0,0,0-1-1H35V13a4,4,0,0,0-4-4H30a1,1,0,0,0-1,1v3.59L25.59,17H16.53A17,17,0,1,1,17.6,33Z" data-original="#000000" class="active-path" data-old_color="#000000" fill="#FFFFFF"/><path d="M9,11a1,1,0,0,0,1-1.27L9.15,6.86l1.44-1.05a1,1,0,0,0,.39-1A1,1,0,0,0,10.24,4L7.91,3.44l-1-1.91a1,1,0,0,0-1.76,0l-1,1.91L1.76,4A1,1,0,0,0,1,4.81a1,1,0,0,0,.39,1L2.85,6.86,2,9.73a1,1,0,0,0,.39,1.09,1,1,0,0,0,1.16,0L6,9l2.41,1.77A1,1,0,0,0,9,11ZM7.41,5.66A1,1,0,0,0,7,6.74l.21.74L6.59,7A1,1,0,0,0,5.41,7l-.66.48L5,6.74a1,1,0,0,0-.37-1.08L4.3,5.45,5,5.27a1,1,0,0,0,.63-.49L6,4.12l.36.66A1,1,0,0,0,7,5.27l.71.18Z" data-original="#000000" class="active-path" data-old_color="#000000" fill="#FFFFFF"/><path d="M63,4.81A1,1,0,0,0,62.24,4l-2.33-.59-1-1.91a1,1,0,0,0-1.76,0l-1,1.91L53.76,4a1,1,0,0,0-.74.78,1,1,0,0,0,.39,1l1.44,1.05L54,9.73a1,1,0,0,0,.39,1.09,1,1,0,0,0,1.16,0L58,9l2.41,1.77A1,1,0,0,0,61,11a1,1,0,0,0,1-1.27l-.81-2.87,1.44-1.05A1,1,0,0,0,63,4.81Zm-3.57.85A1,1,0,0,0,59,6.74l.21.74L58.59,7a1,1,0,0,0-1.18,0l-.66.48L57,6.74a1,1,0,0,0-.37-1.08l-.29-.21L57,5.27a1,1,0,0,0,.63-.49L58,4.12l.36.66a1,1,0,0,0,.63.49l.71.18Z" data-original="#000000" class="active-path" data-old_color="#000000" fill="#FFFFFF"/></g></g> </svg>
