<svg xmlns="http://www.w3.org/2000/svg" xmlns:xlink="http://www.w3.org/1999/xlink" width="80" height="70" viewBox="0 0 80 70">
  <defs>
    <clipPath id="clip-path">
      <rect id="Rectangle_72" data-name="Rectangle 72" width="80" height="70" transform="translate(153 296)" fill="#fff" stroke="#707070" stroke-width="1"/>
    </clipPath>
  </defs>
  <g id="Mask_Group_31" data-name="Mask Group 31" transform="translate(-153 -296)" clip-path="url(#clip-path)">
    <g id="formas-y-simbolos" transform="translate(152.286 296)">
      <g id="Group_55" data-name="Group 55">
        <path id="Path_74" data-name="Path 74" d="M92.147,76.585H15.079a1.384,1.384,0,0,0-1.466,1.283v4.558a1.384,1.384,0,0,0,1.466,1.283H92.147a1.384,1.384,0,0,0,1.466-1.283V77.867a1.206,1.206,0,0,0-.429-.907A1.578,1.578,0,0,0,92.147,76.585ZM90.681,79.15v1.993H16.544V79.15Z" transform="translate(-13.613 -21.484)" fill="#fff"/>
        <path id="Path_75" data-name="Path 75" d="M92.147,90.681H15.079a1.294,1.294,0,1,0,0,2.565H92.147a1.294,1.294,0,1,0,0-2.565Z" transform="translate(-13.613 -23.246)" fill="#fff"/>
        <path id="Path_76" data-name="Path 76" d="M30.827,64.57h.09a7.669,7.669,0,0,0,5.13-1.958L56.765,43.586l.36.316a1.617,1.617,0,0,0,2.073,0l2.815-2.463a6.324,6.324,0,0,0,2.178.666,3.05,3.05,0,0,1,1.661.712l.653.57a2.629,2.629,0,0,0,.793,2.939L71.043,49.6a1.618,1.618,0,0,0,2.072,0l10.052-8.8a1.172,1.172,0,0,0,0-1.814l-3.739-3.281a3.507,3.507,0,0,0-2.318-.84,3.723,3.723,0,0,0-1.04.147l-.652-.57a2.4,2.4,0,0,1-.813-1.454,4.885,4.885,0,0,0-1.649-2.946L54.6,13.989a1.617,1.617,0,0,0-2.073,0l-3.2,2.8a1.165,1.165,0,0,0-.271,1.487l.084.147a6.882,6.882,0,0,1-1.595,8.805,1.172,1.172,0,0,0,0,1.814l2.5,2.189-2.667,2.333a1.173,1.173,0,0,0,0,1.813l.219.191L25.856,53.7a5.764,5.764,0,0,0-1.719,6.909,7.27,7.27,0,0,0,6.69,3.965Zm21.3-46.605,1.436-1.256L70.883,31.861a2.418,2.418,0,0,1,.814,1.454,4.859,4.859,0,0,0,1.649,2.947l1.444,1.264a1.617,1.617,0,0,0,2.073,0,.385.385,0,0,1,.493,0l2.709,2.37-7.983,6.985-2.709-2.37a.28.28,0,0,1,0-.431,1.171,1.171,0,0,0,0-1.813L67.928,41a6.18,6.18,0,0,0-3.368-1.443,3.036,3.036,0,0,1-1.659-.711L50.6,28.077A9.106,9.106,0,0,0,52.13,17.965Zm7.662,21.789-1.629,1.426-7.669-6.71,1.629-1.426Zm-31.913,15.8,21.8-18.171,5.016,4.389L33.927,60.844A4.55,4.55,0,0,1,30.883,62a4.773,4.773,0,0,1-3.076-1.1,3.425,3.425,0,0,1,.075-5.354Z" transform="translate(-13.613 -13.613)" fill="#fff"/>
      </g>
    </g>
  </g>
</svg>
